<svg width="34" height="40" viewBox="0 0 34 40" fill="none" xmlns="http://www.w3.org/2000/svg">
<path d="M11.9051 20.5C14.3271 20.5 16.0181 22.169 16.0181 24.5609V31.4391C16.0181 33.831 14.3271 35.5 11.9051 35.5H6.11304C3.69102 35.5 2 33.831 2 31.4391V24.5609C2 22.169 3.69102 20.5 6.11304 20.5H11.9051ZM19.958 22.879C20.397 22.6556 20.912 22.679 21.331 22.9429C21.75 23.2059 22 23.6627 22 24.1622V31.8384C22 32.3389 21.75 32.7947 21.331 33.0577C21.102 33.2008 20.846 33.2739 20.588 33.2739C20.373 33.2739 20.158 33.2231 19.957 33.1206L18.476 32.3734C17.928 32.0952 17.588 31.5369 17.588 30.9165V25.083C17.588 24.4617 17.928 23.9034 18.476 23.6272L19.958 22.879Z" fill="white"/>
<path d="M28.8701 12.8252V16.7891H27.1299V12.8252H23.4385V11.1113H27.1299V7.22656H28.8701V11.1113H32.5615V12.8252H28.8701Z" fill="white"/>
</svg>
